<?xml version="1.0" encoding="utf-8"?>
<!-- Generator: Adobe Illustrator 25.4.1, SVG Export Plug-In . SVG Version: 6.00 Build 0)  -->
<svg version="1.1" id="Capa_2_00000090989025053312057890000006678803050262171303_"
	 xmlns="http://www.w3.org/2000/svg" xmlns:xlink="http://www.w3.org/1999/xlink" x="0px" y="0px" viewBox="0 0 600.5 73"
	 style="enable-background:new 0 0 600.5 73;" xml:space="preserve">
<style type="text/css">
	.st0{fill:#DC4145;}
	.st1{fill:none;}
	.st2{display:none;}
	.st3{font-family:'BauhausStd-Bold';}
	.st4{font-size:27px;}
	.st5{fill:#212529;}
</style>
<g id="Capa_1-2">
	<g>
		<path class="st0" d="M0,0v37.1l0,0C0,37.1,148.9,73,306.5,73s294-35.9,294-35.9V0H0z"/>
	</g>
</g>
<rect x="5.7" y="-2" class="st1" width="593.8" height="73"/>
<text transform="matrix(1 0 0 1 174.3711 43.9523)" class="st2 st3 st4">CONOCÉ LA BAUHAUS</text>
<g>
	<path class="st5" d="M222.7,31v3.1h-1.4c-1,0-1.7,0.3-2.3,0.9c-0.6,0.6-0.9,1.4-0.9,2.5c0,1.1,0.3,1.9,0.9,2.5
		c0.6,0.6,1.4,0.9,2.3,0.9h1.4v3.1h-2c-1.1,0-2.2-0.3-3.1-0.9c-0.9-0.6-1.6-1.4-2.2-2.4c-0.5-1-0.8-2.1-0.8-3.3
		c0-1.2,0.3-2.3,0.8-3.3c0.5-1,1.2-1.8,2.2-2.4c0.9-0.6,2-0.9,3.1-0.9H222.7z"/>
	<path class="st5" d="M236.8,34.9c0.3,0.8,0.5,1.7,0.5,2.6s-0.2,1.8-0.5,2.6c-0.3,0.8-0.8,1.5-1.4,2.2c-0.6,0.6-1.3,1.1-2.1,1.5
		c-0.8,0.4-1.7,0.5-2.6,0.5c-0.9,0-1.8-0.2-2.6-0.5c-0.8-0.4-1.5-0.9-2.1-1.5c-0.6-0.6-1.1-1.3-1.4-2.2c-0.3-0.8-0.5-1.7-0.5-2.6
		s0.2-1.8,0.5-2.6c0.3-0.8,0.8-1.5,1.4-2.2c0.6-0.6,1.3-1.1,2.1-1.5c0.8-0.4,1.7-0.5,2.6-0.5c0.9,0,1.8,0.2,2.6,0.5
		c0.8,0.4,1.5,0.8,2.1,1.5C236,33.4,236.5,34.1,236.8,34.9z M233.1,40c0.6-0.7,1-1.5,1-2.4c0-0.9-0.3-1.7-1-2.4
		c-0.6-0.7-1.4-1-2.4-1c-0.9,0-1.7,0.3-2.4,1s-1,1.5-1,2.4c0,0.9,0.3,1.7,1,2.4c0.6,0.7,1.4,1,2.4,1C231.6,41,232.4,40.6,233.1,40z"
		/>
	<path class="st5" d="M242.2,44.1H239V32.6c0-0.5,0.2-0.9,0.5-1.3c0.4-0.3,0.8-0.5,1.4-0.5c0.5,0,1,0.1,1.3,0.3
		c0.3,0.2,0.6,0.6,0.9,1l2.9,5.7h0V31h3.2v11.4c0,0.6-0.2,1-0.5,1.4c-0.3,0.4-0.7,0.5-1.2,0.5c-0.4,0-0.8-0.1-1.2-0.4
		c-0.3-0.3-0.7-0.8-1.1-1.6l-3-5.8h0V44.1z"/>
	<path class="st5" d="M263.7,34.9c0.3,0.8,0.5,1.7,0.5,2.6s-0.2,1.8-0.5,2.6c-0.3,0.8-0.8,1.5-1.4,2.2c-0.6,0.6-1.3,1.1-2.1,1.5
		c-0.8,0.4-1.7,0.5-2.6,0.5s-1.8-0.2-2.6-0.5c-0.8-0.4-1.5-0.9-2.1-1.5c-0.6-0.6-1.1-1.3-1.4-2.2c-0.3-0.8-0.5-1.7-0.5-2.6
		s0.2-1.8,0.5-2.6c0.3-0.8,0.8-1.5,1.4-2.2c0.6-0.6,1.3-1.1,2.1-1.5c0.8-0.4,1.7-0.5,2.6-0.5s1.8,0.2,2.6,0.5
		c0.8,0.4,1.5,0.8,2.1,1.5C262.9,33.4,263.4,34.1,263.7,34.9z M260,40c0.6-0.7,1-1.5,1-2.4c0-0.9-0.3-1.7-1-2.4
		c-0.6-0.7-1.4-1-2.4-1s-1.7,0.3-2.4,1s-1,1.5-1,2.4c0,0.9,0.3,1.7,1,2.4c0.6,0.7,1.4,1,2.4,1S259.4,40.6,260,40z"/>
	<path class="st5" d="M273.5,31v3.1h-1.4c-1,0-1.7,0.3-2.3,0.9c-0.6,0.6-0.9,1.4-0.9,2.5c0,1.1,0.3,1.9,0.9,2.5
		c0.6,0.6,1.4,0.9,2.3,0.9h1.4v3.1h-2c-1.1,0-2.2-0.3-3.1-0.9c-0.9-0.6-1.6-1.4-2.2-2.4c-0.5-1-0.8-2.1-0.8-3.3
		c0-1.2,0.3-2.3,0.8-3.3c0.5-1,1.2-1.8,2.2-2.4c0.9-0.6,2-0.9,3.1-0.9H273.5z"/>
	<path class="st5" d="M282.6,31v3c-0.5,0-1,0-1.3,0s-0.7,0.1-1,0.1c-0.3,0.1-0.5,0.1-0.7,0.2s-0.4,0.2-0.5,0.4
		c-0.2,0.2-0.3,0.4-0.4,0.6c-0.1,0.2-0.3,0.5-0.4,0.8h4.3V39h-4.3c0.2,0.3,0.3,0.6,0.4,0.8s0.3,0.4,0.5,0.6c0.2,0.2,0.4,0.3,0.5,0.4
		c0.2,0.1,0.4,0.2,0.7,0.2c0.3,0.1,0.6,0.1,0.9,0.1c0.3,0,0.7,0,1.3,0v3h-1.8c-1.1,0-2.2-0.3-3.1-0.9c-0.9-0.6-1.6-1.4-2.1-2.4
		c-0.5-1-0.8-2.1-0.8-3.3c0-1.2,0.2-2.3,0.8-3.3c0.5-1,1.2-1.8,2.1-2.4c0.9-0.6,1.9-0.9,3.1-0.9H282.6z M279.8,27.4h3.9l-3.2,2.8
		h-2.5L279.8,27.4z"/>
	<path class="st5" d="M296.7,40.9v3.1h-2.5c-1.6,0-2.8-0.3-3.5-1c-0.7-0.7-1.1-1.7-1.1-3.2V31h3.2v8.5c0,0.5,0.1,0.9,0.3,1.1
		c0.2,0.2,0.7,0.3,1.3,0.3H296.7z"/>
	<path class="st5" d="M301.3,44.1H298v-8.6c0-1.4,0.4-2.5,1.3-3.4c0.8-0.9,1.9-1.3,3.3-1.3c1.4,0,2.5,0.4,3.3,1.3
		c0.8,0.9,1.3,2,1.3,3.4v8.6h-3.2v-4.5h-2v-2.9h2v-1.2c0-0.5-0.1-0.9-0.4-1.2c-0.2-0.3-0.6-0.4-1-0.4c-0.4,0-0.7,0.1-1,0.4
		c-0.2,0.3-0.4,0.7-0.4,1.2V44.1z"/>
	<path class="st5" d="M317.8,44.1h-3.2v-8.4c0-1.5,0.4-2.7,1.3-3.6c0.8-0.8,2-1.3,3.4-1.3c0.6,0,1.2,0.1,1.6,0.2
		c0.5,0.1,0.9,0.3,1.2,0.6c0.3,0.3,0.6,0.5,0.8,0.9c0.2,0.3,0.4,0.7,0.5,1.1c0.1,0.4,0.1,0.8,0.1,1.2c0,0.4-0.1,0.9-0.4,1.3
		c-0.3,0.5-0.5,0.8-0.9,1c1.3,0.6,1.9,1.7,1.9,3.3c0,1.2-0.4,2.1-1.1,2.7c-0.7,0.7-1.7,1-2.9,1h-1.6v-3c0.8,0,1.3-0.1,1.7-0.2
		c0.3-0.2,0.5-0.5,0.5-0.9c0-0.4-0.2-0.8-0.5-0.9c-0.4-0.2-0.9-0.3-1.6-0.3V36c0.5,0,0.9-0.1,1.2-0.3c0.3-0.2,0.4-0.4,0.4-0.7
		c0-0.3-0.1-0.6-0.3-0.8c-0.2-0.2-0.4-0.3-0.8-0.3c-0.4,0-0.7,0.1-0.9,0.4c-0.2,0.2-0.3,0.6-0.3,0.9V44.1z"/>
	<path class="st5" d="M329.2,44.1H326v-8.6c0-1.4,0.4-2.5,1.3-3.4c0.8-0.9,1.9-1.3,3.3-1.3c1.4,0,2.5,0.4,3.3,1.3
		c0.8,0.9,1.3,2,1.3,3.4v8.6h-3.2v-4.5h-2v-2.9h2v-1.2c0-0.5-0.1-0.9-0.4-1.2c-0.2-0.3-0.6-0.4-1-0.4c-0.4,0-0.7,0.1-1,0.4
		c-0.2,0.3-0.4,0.7-0.4,1.2V44.1z"/>
	<path class="st5" d="M337.2,31h3.2v8.6c0,1,0.5,1.5,1.5,1.5c1,0,1.5-0.5,1.5-1.5V31h3.2v8.3c0,1.5-0.4,2.7-1.3,3.6
		c-0.8,0.9-2,1.3-3.5,1.3c-1.5,0-2.7-0.4-3.5-1.3c-0.8-0.9-1.3-2.1-1.3-3.6V31z"/>
	<path class="st5" d="M352,35.6h2.6V31h3.2v13h-3.2v-5.3H352v5.3h-3.2V31h3.2V35.6z"/>
	<path class="st5" d="M363.4,44.1h-3.2v-8.6c0-1.4,0.4-2.5,1.3-3.4c0.8-0.9,1.9-1.3,3.3-1.3c1.4,0,2.5,0.4,3.3,1.3
		c0.8,0.9,1.3,2,1.3,3.4v8.6H366v-4.5h-2v-2.9h2v-1.2c0-0.5-0.1-0.9-0.4-1.2c-0.2-0.3-0.6-0.4-1-0.4c-0.4,0-0.7,0.1-1,0.4
		c-0.2,0.3-0.4,0.7-0.4,1.2V44.1z"/>
	<path class="st5" d="M371.3,31h3.2v8.6c0,1,0.5,1.5,1.5,1.5c1,0,1.5-0.5,1.5-1.5V31h3.2v8.3c0,1.5-0.4,2.7-1.3,3.6
		c-0.8,0.9-2,1.3-3.5,1.3c-1.5,0-2.7-0.4-3.5-1.3c-0.8-0.9-1.3-2.1-1.3-3.6V31z"/>
	<path class="st5" d="M389.6,31v3h-3.3c-0.2,0-0.4,0-0.5,0.1c-0.1,0.1-0.2,0.2-0.2,0.4c0,0.1,0.1,0.3,0.3,0.5
		c0.2,0.2,0.4,0.4,0.7,0.6c0.3,0.2,0.6,0.4,0.9,0.6c0.3,0.2,0.7,0.5,1,0.8c0.3,0.3,0.7,0.6,0.9,0.9c0.3,0.3,0.5,0.7,0.7,1
		c0.2,0.4,0.3,0.8,0.3,1.2c0,0.3,0,0.5,0,0.7c0,0.2-0.1,0.5-0.1,0.8c-0.1,0.3-0.2,0.5-0.3,0.7c-0.1,0.2-0.3,0.4-0.5,0.7
		c-0.2,0.2-0.5,0.4-0.8,0.5c-0.3,0.1-0.7,0.3-1.2,0.3c-0.5,0.1-1,0.1-1.6,0.1h-3.5v-3h3.4c0.8,0,1.2-0.2,1.2-0.7
		c0-0.2-0.1-0.4-0.3-0.6c-0.2-0.2-0.4-0.4-0.7-0.6c-0.3-0.2-0.6-0.4-0.9-0.6c-0.3-0.2-0.7-0.5-1-0.7c-0.3-0.3-0.6-0.5-0.9-0.8
		c-0.3-0.3-0.5-0.6-0.7-1c-0.2-0.4-0.3-0.8-0.3-1.2c0-0.5,0.1-1,0.2-1.4c0.1-0.4,0.3-0.8,0.6-1.1c0.2-0.3,0.5-0.5,0.9-0.7
		c0.3-0.2,0.7-0.3,1.1-0.4c0.4-0.1,0.8-0.1,1.2-0.1H389.6z"/>
</g>
</svg>
